# xmcd
#
# Track frame offsets: 
#        150
#        23832
#        46350
#        60392
#
# Disc length: 1036 seconds
#
# Revision: 0
# Processed by: cddbd v1.5PL3 Copyright (c) Steve Scherf et al.
# Submitted via: ExactAudioCopy v0.90b4
#
DISCID=29040a04
DTITLE=The 4 Of Us - I Miss You [CDS2)
DYEAR=1992
DGENRE=Rock
TTITLE0=I Miss You (Album Version)
TTITLE1=Love Hate and Hope (Live)
TTITLE2=Lightning Paul
TTITLE3=Love With Christine
EXTD=
EXTT0=
EXTT1=
EXTT2=
EXTT3=
PLAYORDER=
